<svg width="6" height="6" viewBox="0 0 6 6" fill="none" xmlns="http://www.w3.org/2000/svg">
<path d="M5.53726 4.7925C4.95851 5.53025 4.06701 6 3.06576 6C3.04151 6 3.01726 5.99975 2.99326 5.99925H2.99676C2.51022 6.01008 2.02787 5.90725 1.58806 5.69893C1.14825 5.49061 0.763108 5.18256 0.463256 4.79925L0.458006 4.7925L-0.000244141 5.25V3.7515H1.49826L1.08726 4.163C1.42001 4.71 1.96726 5.0985 2.60951 5.21225L2.62301 5.21425V2.949C1.97151 2.77675 1.49926 2.1925 1.49926 1.49825C1.49932 1.21847 1.57772 0.944286 1.72557 0.706755C1.87342 0.469223 2.08482 0.277829 2.33584 0.154241C2.58685 0.0306522 2.86745 -0.0201934 3.14586 0.00746016C3.42428 0.0351138 3.6894 0.140162 3.91119 0.310712C4.13299 0.481261 4.30261 0.7105 4.40085 0.972474C4.49909 1.23445 4.52202 1.51869 4.46705 1.79303C4.41208 2.06736 4.28141 2.32083 4.08982 2.52473C3.89823 2.72863 3.65339 2.87482 3.38301 2.94675L3.37251 2.949V5.2145C3.68703 5.1599 3.98627 5.03873 4.25017 4.85911C4.51408 4.67949 4.73657 4.44557 4.90276 4.173L4.90826 4.16325L4.49526 3.7515H5.99376V5.25L5.53726 4.7925ZM3.74701 1.504C3.74704 1.30526 3.66812 1.11464 3.52761 0.97408C3.45803 0.904482 3.37543 0.84927 3.28452 0.811595C3.19361 0.77392 3.09617 0.754521 2.99776 0.754504C2.89935 0.754488 2.8019 0.773855 2.71097 0.811499C2.62005 0.849144 2.53743 0.904328 2.46783 0.973903C2.32727 1.11441 2.24829 1.30501 2.24826 1.50375C2.24822 1.60216 2.26757 1.69962 2.3052 1.79055C2.34283 1.88148 2.398 1.96411 2.46757 2.03372C2.60805 2.1743 2.79863 2.25331 2.99738 2.25338C3.19613 2.25345 3.38676 2.17456 3.52734 2.03407C3.66792 1.89358 3.74694 1.70275 3.74701 1.504Z" fill="white"/>
</svg>
