<svg width="18" height="13" viewBox="0 0 18 13" fill="none" xmlns="http://www.w3.org/2000/svg">
<path d="M3.95232 2.37899C3.54802 2.49105 3.56123 2.7167 3.96429 2.83316C5.18817 3.18676 6.9831 3.48993 9.25061 3.48993C11.5181 3.48993 13.3131 3.18676 14.5369 2.83316C14.94 2.7167 14.9734 2.46062 14.5697 2.34621C13.6375 2.082 11.7313 1.74497 9.25061 1.74497C6.78819 1.74497 4.89193 2.11855 3.95232 2.37899ZM11.8006 9.72483C11.8006 9.17255 11.3529 8.72483 10.8006 8.72483H7.70061C7.14832 8.72483 6.70061 9.17255 6.70061 9.72483V11.8949C6.70061 12.4865 6.1884 12.9512 5.60302 12.8651C2.70923 12.4394 0.75061 11.5586 0.75061 10.4698V2.61745C0.75061 1.13423 4.57561 0 9.25061 0C13.9256 0 17.7506 1.13423 17.7506 2.61745V10.4698C17.7506 11.4809 15.7918 12.4226 12.8978 12.8624C12.3129 12.9513 11.8006 12.4865 11.8006 11.8949V9.72483Z" fill="#0043C6"/>
</svg>
