<svg width="61" height="40" viewBox="0 0 61 40" fill="none" xmlns="http://www.w3.org/2000/svg">
<path opacity="0.05" d="M10.3664 9.5525C9.97199 9.70052 10.0115 9.96169 10.4105 10.0966C15.0362 11.6605 22.587 13.1544 32.5 13.1544C42.413 13.1544 49.9638 11.6605 54.5895 10.0966C54.9885 9.96169 55.0813 9.64432 54.6968 9.47233C52.5331 8.5045 44.1831 6.57718 32.5 6.57718C20.9275 6.57718 12.6254 8.70453 10.3664 9.5525ZM42.25 33.8859C42.25 33.3336 41.8023 32.8859 41.25 32.8859H23.75C23.1977 32.8859 22.75 33.3336 22.75 33.8859V47.8964C22.75 48.4875 22.2389 48.95 21.6513 48.8854C8.90985 47.4833 0 43.9395 0 39.4631V9.86577C0 4.27517 14.625 0 32.5 0C50.375 0 65 4.27517 65 9.86577V39.4631C65 43.6198 56.0901 47.4656 43.3486 48.8846C42.7612 48.9501 42.25 48.4875 42.25 47.8964V33.8859Z" fill="#0043C6"/>
</svg>
