<svg width="10" height="18" viewBox="0 0 10 18" fill="none" xmlns="http://www.w3.org/2000/svg">
<path d="M9.65358 0.355732C9.88453 0.592886 10 0.873676 10 1.1981C10 1.52253 9.88453 1.803 9.65358 2.03953L2.88685 8.98814L9.67667 15.9605C9.89223 16.1818 10 16.4585 10 16.7905C10 17.1225 9.88453 17.4071 9.65358 17.6443C9.42263 17.8814 9.14919 18 8.83326 18C8.51732 18 8.24419 17.8814 8.01386 17.6443L0.254055 9.65217C0.161676 9.55731 0.0960884 9.45455 0.0572891 9.34387C0.0184898 9.2332 -0.000601768 9.11462 1.43051e-05 8.98814C1.43051e-05 8.86166 0.019413 8.74308 0.0582123 8.63241C0.0970116 8.52174 0.162292 8.41897 0.254055 8.32411L8.03695 0.332016C8.2525 0.110672 8.51825 0 8.83418 0C9.15012 0 9.42325 0.118578 9.65358 0.355732Z" fill="#CDCDCD"/>
</svg>
