<svg width="68" height="44" viewBox="0 0 68 44" fill="none" xmlns="http://www.w3.org/2000/svg">
<path opacity="0.05" d="M22.5 0H12.375C9.09295 0 5.94532 1.32793 3.62455 3.69167C1.30379 6.05541 0 9.26133 0 12.6042V22.9167H10.206C9.21557 21.1691 8.81892 19.1376 9.07758 17.1371C9.33623 15.1366 10.2357 13.2789 11.6366 11.8521C13.0374 10.4253 14.8614 9.50913 16.8255 9.24568C18.7896 8.98224 20.7842 9.38623 22.5 10.395V0ZM27 18.3333V22.9167H31.5C32.39 22.9167 33.26 22.6479 34.0001 22.1442C34.7401 21.6406 35.3169 20.9248 35.6575 20.0873C35.9981 19.2498 36.0872 18.3282 35.9135 17.4392C35.7399 16.5501 35.3113 15.7334 34.682 15.0924C34.0526 14.4514 33.2508 14.0149 32.3779 13.8381C31.505 13.6612 30.6002 13.752 29.7779 14.0989C28.9557 14.4458 28.2529 15.0332 27.7584 15.787C27.2639 16.5407 27 17.4268 27 18.3333ZM39.294 22.9167C40.2844 21.1691 40.6811 19.1376 40.4224 17.1371C40.1638 15.1366 39.2643 13.2789 37.8634 11.8521C36.4626 10.4253 34.6386 9.50913 32.6745 9.24568C30.7104 8.98224 28.7158 9.38623 27 10.395V0H59.625C62.9071 0 66.0547 1.32793 68.3754 3.69167C70.6962 6.05541 72 9.26133 72 12.6042V22.9167H39.294ZM30.1815 27.5L37.593 35.0442C38.0155 35.4745 38.2528 36.0581 38.2528 36.6667C38.2528 37.2752 38.0155 37.8589 37.593 38.2892C37.1705 38.7195 36.5975 38.9612 36 38.9612C35.4025 38.9612 34.8295 38.7195 34.407 38.2892L27 30.7404V55H59.625C62.9071 55 66.0547 53.6721 68.3754 51.3083C70.6962 48.9446 72 45.7387 72 42.3958V27.5H30.1815ZM22.5 55V30.7404L15.093 38.2892C14.6705 38.7195 14.0975 38.9612 13.5 38.9612C12.9025 38.9612 12.3295 38.7195 11.907 38.2892C11.4845 37.8589 11.2472 37.2752 11.2472 36.6667C11.2472 36.0581 11.4845 35.4745 11.907 35.0442L19.3185 27.5H0V42.3958C0 45.7387 1.30379 48.9446 3.62455 51.3083C5.94532 53.6721 9.09295 55 12.375 55H22.5ZM22.5 18.3333C22.5 17.4268 22.2361 16.5407 21.7416 15.787C21.2471 15.0332 20.5443 14.4458 19.7221 14.0989C18.8998 13.752 17.995 13.6612 17.1221 13.8381C16.2492 14.0149 15.4474 14.4514 14.818 15.0924C14.1887 15.7334 13.7601 16.5501 13.5865 17.4392C13.4128 18.3282 13.5019 19.2498 13.8425 20.0873C14.1831 20.9248 14.7599 21.6406 15.4999 22.1442C16.24 22.6479 17.11 22.9167 18 22.9167H22.5V18.3333Z" fill="#0043C6"/>
</svg>
