<svg width="32" height="32" viewBox="0 0 32 32" fill="none" xmlns="http://www.w3.org/2000/svg">
<path d="M10 20C7.9778 20 6.2498 19.2831 4.81602 17.8493C3.38224 16.4156 2.6658 14.688 2.66669 12.6667C2.66669 10.8222 3.2778 9.21111 4.50002 7.83333C5.72224 6.45555 7.23335 5.64444 9.03335 5.4C9.74447 4.13333 10.7169 3.13867 11.9507 2.416C13.1845 1.69333 14.5342 1.33244 16 1.33333C18 1.33333 19.7391 1.97244 21.2174 3.25067C22.6956 4.52889 23.5898 6.12311 23.9 8.03333C25.4334 8.16667 26.7222 8.8 27.7667 9.93333C28.8111 11.0667 29.3334 12.4222 29.3334 14C29.3334 15.6667 28.7502 17.0836 27.584 18.2507C26.4178 19.4178 25.0009 20.0009 23.3334 20H10Z" fill="#161616"/>
<path d="M4.81602 17.8493C6.2498 19.2831 7.9778 20 10 20H23.3334C25.0009 20.0009 26.4178 19.4178 27.584 18.2507C28.7502 17.0836 29.3334 15.6667 29.3334 14C29.3334 12.4222 28.8111 11.0667 27.7667 9.93333C26.7222 8.8 25.4334 8.16667 23.9 8.03333C23.5898 6.12311 22.6956 4.52889 21.2174 3.25067C19.7391 1.97244 18 1.33333 16 1.33333C14.5342 1.33244 13.1845 1.69333 11.9507 2.416C10.7169 3.13867 9.74447 4.13333 9.03335 5.4C7.23335 5.64444 5.72224 6.45556 4.50002 7.83333C3.2778 9.21111 2.66669 10.8222 2.66669 12.6667C2.6658 14.688 3.38224 16.4156 4.81602 17.8493Z" fill="#0043C6"/>
<path d="M15 24H9C8.73478 24 8.48043 23.8946 8.29289 23.7071C8.10536 23.5196 8 23.2652 8 23C8 22.7348 8.10536 22.4804 8.29289 22.2929C8.48043 22.1054 8.73478 22 9 22H15C15.2652 22 15.5196 22.1054 15.7071 22.2929C15.8946 22.4804 16 22.7348 16 23C16 23.2652 15.8946 23.5196 15.7071 23.7071C15.5196 23.8946 15.2652 24 15 24ZM23 22H20C19.7348 22 19.4804 22.1054 19.2929 22.2929C19.1054 22.4804 19 22.7348 19 23C19 23.2652 19.1054 23.5196 19.2929 23.7071C19.4804 23.8946 19.7348 24 20 24H23C23.2652 24 23.5196 23.8946 23.7071 23.7071C23.8946 23.5196 24 23.2652 24 23C24 22.7348 23.8946 22.4804 23.7071 22.2929C23.5196 22.1054 23.2652 22 23 22ZM20 26H13C12.7348 26 12.4804 26.1054 12.2929 26.2929C12.1054 26.4804 12 26.7348 12 27C12 27.2652 12.1054 27.5196 12.2929 27.7071C12.4804 27.8946 12.7348 28 13 28H20C20.2652 28 20.5196 27.8946 20.7071 27.7071C20.8946 27.5196 21 27.2652 21 27C21 26.7348 20.8946 26.4804 20.7071 26.2929C20.5196 26.1054 20.2652 26 20 26Z" fill="black"/>
</svg>
