<svg width="20" height="20" viewBox="0 0 20 20" fill="none" xmlns="http://www.w3.org/2000/svg">
<path fill-rule="evenodd" clip-rule="evenodd" d="M7.96499 0.808999C7.7658 0.66333 7.53396 0.568666 7.28973 0.533279C7.04551 0.497891 6.79634 0.522859 6.56399 0.605999C5.4776 1.00398 4.4686 1.58766 3.58199 2.331C3.39414 2.49049 3.24818 2.69352 3.15684 2.92239C3.06551 3.15126 3.03157 3.399 3.05799 3.644C3.13299 4.397 2.99999 5.124 2.63799 5.75C2.27699 6.377 1.71299 6.856 1.02299 7.167C0.797337 7.26695 0.599601 7.42066 0.447069 7.61468C0.294537 7.8087 0.191852 8.03713 0.147991 8.28C-0.0495337 9.41816 -0.0495337 10.5818 0.147991 11.72C0.240991 12.257 0.607991 12.646 1.02299 12.834C1.71299 13.144 2.27699 13.624 2.63899 14.25C2.99999 14.877 3.13299 15.603 3.05799 16.356C3.01299 16.808 3.16499 17.32 3.58199 17.669C4.46859 18.4124 5.47759 18.996 6.56399 19.394C6.79618 19.4771 7.04519 19.502 7.28923 19.4666C7.53328 19.4312 7.76495 19.3366 7.96399 19.191C8.57899 18.749 9.27599 18.5 9.99999 18.5C10.724 18.5 11.42 18.749 12.035 19.191C12.405 19.457 12.925 19.581 13.436 19.394C14.5224 18.996 15.5314 18.4123 16.418 17.669C16.835 17.32 16.988 16.809 16.942 16.356C16.867 15.603 16.999 14.876 17.362 14.25C17.723 13.623 18.287 13.145 18.977 12.834C19.391 12.646 19.759 12.257 19.852 11.72C20.0495 10.5818 20.0495 9.41816 19.852 8.28C19.8081 8.03713 19.7054 7.8087 19.5529 7.61468C19.4004 7.42066 19.2026 7.26695 18.977 7.167C18.287 6.856 17.723 6.377 17.361 5.75C16.999 5.124 16.867 4.397 16.942 3.644C16.9683 3.39901 16.9343 3.15129 16.843 2.92244C16.7517 2.69359 16.6058 2.49054 16.418 2.331C15.5314 1.58766 14.5224 1.00398 13.436 0.605999C13.2038 0.523032 12.9548 0.498156 12.7108 0.533541C12.4667 0.568926 12.2351 0.663496 12.036 0.808999C11.42 1.25 10.723 1.5 9.99999 1.5C9.27699 1.5 8.57999 1.251 7.96499 0.808999ZM6.99999 10C6.99999 9.20435 7.31606 8.44129 7.87867 7.87868C8.44128 7.31607 9.20434 7 9.99999 7C10.7956 7 11.5587 7.31607 12.1213 7.87868C12.6839 8.44129 13 9.20435 13 10C13 10.7956 12.6839 11.5587 12.1213 12.1213C11.5587 12.6839 10.7956 13 9.99999 13C9.20434 13 8.44128 12.6839 7.87867 12.1213C7.31606 11.5587 6.99999 10.7956 6.99999 10Z" fill="#9A9A9A"/>
</svg>
