<svg width="10" height="8" viewBox="0 0 10 8" fill="none" xmlns="http://www.w3.org/2000/svg">
<path d="M0.863405 0.621035L2.84134 2.36105L4.60355 0.191747C4.6529 0.131101 4.71529 0.0823669 4.78609 0.0491731C4.85688 0.0159793 4.93426 -0.000818507 5.01245 3.0664e-05C5.09064 0.000879835 5.16763 0.0193541 5.23769 0.0540776C5.30774 0.0888011 5.36906 0.138879 5.41708 0.200582L7.09872 2.36053L9.14059 0.595569C9.22078 0.526399 9.32018 0.483367 9.4255 0.47223C9.53082 0.461094 9.63703 0.482384 9.72991 0.533253C9.82279 0.584122 9.89792 0.662142 9.94524 0.756871C9.99255 0.8516 10.0098 0.958518 9.99467 1.06332L9.21493 6.44084H0.797387L0.0056916 1.08774C-0.0100346 0.982362 0.00701441 0.874695 0.0545294 0.779325C0.102044 0.683955 0.177729 0.60549 0.271333 0.554557C0.364937 0.503624 0.471937 0.482685 0.57784 0.494576C0.683743 0.506467 0.783432 0.550613 0.863405 0.621035ZM0.837933 6.96056H9.15515V7.48028C9.15515 7.61812 9.10038 7.75031 9.0029 7.84778C8.90541 7.94524 8.77319 8 8.63532 8H1.35776C1.21989 8 1.08767 7.94524 0.990187 7.84778C0.8927 7.75031 0.837933 7.61812 0.837933 7.48028V6.96056Z" fill="white"/>
</svg>
