<svg width="9" height="12" viewBox="0 0 9 12" fill="none" xmlns="http://www.w3.org/2000/svg">
<path d="M4.66697 0C2.28681 0 0.333344 1.93563 0.333344 4.29657C0.333344 5.21155 0.62801 6.0642 1.1249 6.76263L1.10713 6.73506L3.88119 11.502L3.89534 11.5203C4.00714 11.6653 4.11779 11.7822 4.25169 11.8702C4.38559 11.9582 4.55704 12.0138 4.72547 11.997C5.06202 11.9634 5.2576 11.7322 5.4383 11.4887L5.44956 11.4736L8.50803 6.2994L8.51049 6.29509C8.58372 6.16371 8.63673 6.03117 8.68209 5.9028C8.89184 5.39295 8.99982 4.84741 9.00001 4.29657C9.00001 1.93563 7.04712 0 4.66697 0ZM4.66697 0.717962C6.65365 0.717962 8.27779 2.32878 8.27779 4.29657C8.27792 4.7562 8.18763 5.21141 8.01201 5.63658L8.0084 5.64548L8.00522 5.65482C7.96723 5.76352 7.92592 5.86216 7.87825 5.94774L4.85084 11.0691C4.7168 11.2446 4.62334 11.2859 4.65339 11.2828C4.66884 11.2813 4.68314 11.2934 4.65007 11.2716C4.61843 11.2509 4.55387 11.1897 4.47731 11.0927L1.72434 6.36115L1.71481 6.34779C1.29953 5.76481 1.05557 5.05876 1.05557 4.29657C1.05557 2.32893 2.68028 0.717962 4.66697 0.717962ZM4.66697 1.84516C3.30023 1.84516 2.1948 2.9402 2.1948 4.29657C2.1948 5.65295 3.30038 6.74799 4.66697 6.74799C6.03355 6.74799 7.13855 5.65281 7.13855 4.29657C7.13855 2.9402 6.03355 1.84516 4.66697 1.84516ZM4.66697 2.56313C5.65164 2.56313 6.41633 3.32201 6.41633 4.29657C6.41633 5.27114 5.65179 6.03002 4.66697 6.03002C3.68214 6.03002 2.91702 5.27099 2.91702 4.29657C2.91702 3.32201 3.68229 2.56313 4.66697 2.56313Z" fill="#0043C6"/>
</svg>
