<svg width="14" height="11" viewBox="0 0 14 11" fill="none" xmlns="http://www.w3.org/2000/svg">
<path d="M1.69934 0.86801L4.23601 3.10001L6.49601 0.317343C6.55929 0.23955 6.63931 0.177036 6.7301 0.134457C6.8209 0.091878 6.92013 0.0703307 7.02041 0.0714199C7.12068 0.0725092 7.21942 0.096207 7.30927 0.140748C7.39912 0.18529 7.47776 0.249527 7.53934 0.328677L9.69601 3.09934L12.3147 0.835343C12.4175 0.746617 12.545 0.691417 12.6801 0.677131C12.8151 0.662846 12.9513 0.690157 13.0705 0.755409C13.1896 0.820661 13.2859 0.92074 13.3466 1.04225C13.4073 1.16377 13.4294 1.30091 13.41 1.43534L12.41 8.33334H1.61467L0.59934 1.46668C0.579172 1.3315 0.601037 1.19339 0.661974 1.07106C0.722911 0.948721 0.819976 0.84807 0.940021 0.782736C1.06007 0.717402 1.19729 0.690543 1.33311 0.705796C1.46893 0.721049 1.59678 0.777677 1.69934 0.86801ZM1.66667 9.00001H12.3333V9.66668C12.3333 9.84349 12.2631 10.0131 12.1381 10.1381C12.0131 10.2631 11.8435 10.3333 11.6667 10.3333H2.33334C2.15653 10.3333 1.98696 10.2631 1.86194 10.1381C1.73691 10.0131 1.66667 9.84349 1.66667 9.66668V9.00001Z" fill="#FFC50D"/>
</svg>
