<svg width="32" height="32" viewBox="0 0 32 32" fill="none" xmlns="http://www.w3.org/2000/svg">
<path d="M10 20C7.9778 20 6.2498 19.2831 4.81602 17.8493C3.38224 16.4156 2.6658 14.688 2.66669 12.6667C2.66669 10.8222 3.2778 9.21111 4.50002 7.83333C5.72224 6.45555 7.23335 5.64444 9.03335 5.4C9.74447 4.13333 10.7169 3.13867 11.9507 2.416C13.1845 1.69333 14.5342 1.33244 16 1.33333C18 1.33333 19.7391 1.97244 21.2174 3.25067C22.6956 4.52889 23.5898 6.12311 23.9 8.03333C25.4334 8.16667 26.7222 8.8 27.7667 9.93333C28.8111 11.0667 29.3334 12.4222 29.3334 14C29.3334 15.6667 28.7502 17.0836 27.584 18.2507C26.4178 19.4178 25.0009 20.0009 23.3334 20H10Z" fill="#161616"/>
<path d="M4.81602 17.8493C6.2498 19.2831 7.9778 20 10 20H23.3334C25.0009 20.0009 26.4178 19.4178 27.584 18.2507C28.7502 17.0836 29.3334 15.6667 29.3334 14C29.3334 12.4222 28.8111 11.0667 27.7667 9.93333C26.7222 8.8 25.4334 8.16667 23.9 8.03333C23.5898 6.12311 22.6956 4.52889 21.2174 3.25067C19.7391 1.97244 18 1.33333 16 1.33333C14.5342 1.33244 13.1845 1.69333 11.9507 2.416C10.7169 3.13867 9.74447 4.13333 9.03335 5.4C7.23335 5.64444 5.72224 6.45556 4.50002 7.83333C3.2778 9.21111 2.66669 10.8222 2.66669 12.6667C2.6658 14.688 3.38224 16.4156 4.81602 17.8493Z" fill="#0043C6"/>
<path d="M9.10511 22.0443C9.21784 22.0805 9.32206 22.1378 9.4118 22.2128C9.50155 22.2878 9.57506 22.3792 9.62814 22.4816C9.68121 22.584 9.71281 22.6955 9.72113 22.8096C9.72945 22.9238 9.71432 23.0384 9.67661 23.147L8.77235 25.7599C8.73829 25.8724 8.68102 25.9771 8.60397 26.0678C8.52692 26.1584 8.43167 26.2332 8.32393 26.2876C8.21619 26.3419 8.09816 26.3748 7.97692 26.3842C7.85567 26.3936 7.7337 26.3794 7.61831 26.3424C7.50291 26.3053 7.39646 26.2462 7.30533 26.1686C7.2142 26.091 7.14026 25.9965 7.08794 25.8907C7.03561 25.785 7.00598 25.6701 7.00082 25.5531C6.99565 25.436 7.01506 25.3191 7.05787 25.2095L7.96213 22.5965C8.03769 22.3773 8.20056 22.196 8.4149 22.0924C8.62925 21.9889 8.87752 21.9716 9.10511 22.0443ZM14.5307 22.0443C14.6434 22.0805 14.7476 22.1378 14.8374 22.2128C14.9271 22.2878 15.0006 22.3792 15.0537 22.4816C15.1068 22.584 15.1384 22.6955 15.1467 22.8096C15.155 22.9238 15.1399 23.0384 15.1022 23.147L13.2936 28.3729C13.2596 28.4854 13.2023 28.5901 13.1253 28.6807C13.0482 28.7714 12.953 28.8461 12.8452 28.9005C12.7375 28.9549 12.6195 28.9878 12.4982 28.9972C12.377 29.0066 12.255 28.9924 12.1396 28.9553C12.0242 28.9183 11.9178 28.8592 11.8266 28.7816C11.7355 28.704 11.6616 28.6094 11.6092 28.5037C11.5569 28.3979 11.5273 28.2831 11.5221 28.166C11.5169 28.0489 11.5363 27.9321 11.5792 27.8224L13.3877 22.5965C13.4632 22.3773 13.6261 22.196 13.8405 22.0924C14.0548 21.9889 14.3031 21.9716 14.5307 22.0443ZM19.9562 22.0443C20.0689 22.0805 20.1732 22.1378 20.2629 22.2128C20.3527 22.2878 20.4262 22.3792 20.4792 22.4816C20.5323 22.584 20.5639 22.6955 20.5722 22.8096C20.5805 22.9238 20.5654 23.0384 20.5277 23.147L19.6234 25.7599C19.5894 25.8724 19.5321 25.9771 19.4551 26.0678C19.378 26.1584 19.2828 26.2332 19.175 26.2876C19.0673 26.3419 18.9493 26.3748 18.828 26.3842C18.7068 26.3936 18.5848 26.3794 18.4694 26.3424C18.354 26.3053 18.2476 26.2462 18.1564 26.1686C18.0653 26.091 17.9914 25.9965 17.939 25.8907C17.8867 25.785 17.8571 25.6701 17.8519 25.5531C17.8468 25.436 17.8662 25.3191 17.909 25.2095L18.8132 22.5965C18.8888 22.3773 19.0517 22.196 19.266 22.0924C19.4803 21.9889 19.7286 21.9716 19.9562 22.0443ZM25.3818 22.0443C25.4945 22.0805 25.5987 22.1378 25.6885 22.2128C25.7782 22.2878 25.8517 22.3792 25.9048 22.4816C25.9579 22.584 25.9895 22.6955 25.9978 22.8096C26.0061 22.9238 25.991 23.0384 25.9533 23.147L24.1447 28.3729C24.1107 28.4854 24.0534 28.5901 23.9764 28.6807C23.8993 28.7714 23.8041 28.8461 23.6963 28.9005C23.5886 28.9549 23.4706 28.9878 23.3493 28.9972C23.2281 29.0066 23.1061 28.9924 22.9907 28.9553C22.8753 28.9183 22.7689 28.8592 22.6777 28.7816C22.5866 28.704 22.5127 28.6094 22.4603 28.5037C22.408 28.3979 22.3784 28.2831 22.3732 28.166C22.368 28.0489 22.3875 27.9321 22.4303 27.8224L24.2388 22.5965C24.3143 22.3773 24.4772 22.196 24.6916 22.0924C24.9059 21.9889 25.1542 21.9716 25.3818 22.0443Z" fill="black"/>
</svg>
