<svg width="28" height="29" viewBox="0 0 28 29" fill="none" xmlns="http://www.w3.org/2000/svg">
<path fill-rule="evenodd" clip-rule="evenodd" d="M10.6338 6.3273C10.64 6.29206 10.6723 6.26736 10.7079 6.27057C10.7436 6.27368 10.771 6.3035 10.771 6.33935C10.7711 10.0734 10.7711 25.6309 10.7711 26.934C10.7711 26.9549 10.7615 26.9749 10.7449 26.9881C10.7285 27.0011 10.707 27.006 10.6864 27.0013C6.51881 26.0478 3.06871 26.6399 0.102753 28.2747C0.0725311 28.2916 0.034378 28.2835 0.0136946 28.2557C-0.00708913 28.2279 -0.0038767 28.189 0.0210237 28.1649C5.35161 22.9546 8.93646 15.7299 10.6338 6.3273ZM10.7591 0.105323C10.742 0.0777119 10.7466 0.0419669 10.7698 0.0193759C10.7932 -0.00311477 10.8291 -0.00642703 10.8561 0.0115454C21.3277 6.95543 26.7236 14.4724 27.4193 22.5201C27.4212 22.5409 27.4133 22.5614 27.3983 22.5759C27.3832 22.5903 27.3624 22.5972 27.3416 22.5946C21.2333 21.821 15.839 23.2686 11.1065 26.7756C11.0795 26.7958 11.0419 26.7935 11.0175 26.7703C10.9931 26.7471 10.989 26.7096 11.0078 26.6817C16.211 18.8944 16.9765 10.2076 10.7591 0.105323Z" fill="#0043C6"/>
</svg>
