<svg width="32" height="32" viewBox="0 0 32 32" fill="none" xmlns="http://www.w3.org/2000/svg">
<path d="M8.66669 25.3333C8.20002 25.3333 7.80535 25.172 7.48269 24.8493C7.16002 24.5267 6.99913 24.1324 7.00002 23.6667C7.00002 23.2 7.16135 22.8053 7.48402 22.4827C7.80669 22.16 8.20091 21.9991 8.66669 22C9.13335 22 9.52802 22.1613 9.85069 22.484C10.1734 22.8067 10.3342 23.2009 10.3334 23.6667C10.3334 24.1333 10.172 24.528 9.84935 24.8507C9.52669 25.1733 9.13247 25.3342 8.66669 25.3333ZM12.6667 29.3333C12.2 29.3333 11.8054 29.172 11.4827 28.8493C11.16 28.5267 10.9991 28.1324 11 27.6667C11 27.2 11.1614 26.8053 11.484 26.4827C11.8067 26.16 12.2009 25.9991 12.6667 26C13.1334 26 13.528 26.1613 13.8507 26.484C14.1734 26.8067 14.3342 27.2009 14.3334 27.6667C14.3334 28.1333 14.172 28.528 13.8494 28.8507C13.5267 29.1733 13.1325 29.3342 12.6667 29.3333ZM16.6667 25.3333C16.2 25.3333 15.8054 25.172 15.4827 24.8493C15.16 24.5267 14.9991 24.1324 15 23.6667C15 23.2 15.1614 22.8053 15.484 22.4827C15.8067 22.16 16.2009 21.9991 16.6667 22C17.1334 22 17.528 22.1613 17.8507 22.484C18.1734 22.8067 18.3342 23.2009 18.3334 23.6667C18.3334 24.1333 18.172 24.528 17.8494 24.8507C17.5267 25.1733 17.1325 25.3342 16.6667 25.3333ZM24.6667 25.3333C24.2 25.3333 23.8054 25.172 23.4827 24.8493C23.16 24.5267 22.9991 24.1324 23 23.6667C23 23.2 23.1614 22.8053 23.484 22.4827C23.8067 22.16 24.2009 21.9991 24.6667 22C25.1334 22 25.528 22.1613 25.8507 22.484C26.1734 22.8067 26.3342 23.2009 26.3334 23.6667C26.3334 24.1333 26.172 24.528 25.8494 24.8507C25.5267 25.1733 25.1325 25.3342 24.6667 25.3333ZM20.6667 29.3333C20.2 29.3333 19.8054 29.172 19.4827 28.8493C19.16 28.5267 18.9991 28.1324 19 27.6667C19 27.2 19.1614 26.8053 19.484 26.4827C19.8067 26.16 20.2009 25.9991 20.6667 26C21.1334 26 21.528 26.1613 21.8507 26.484C22.1734 26.8067 22.3342 27.2009 22.3334 27.6667C22.3334 28.1333 22.172 28.528 21.8494 28.8507C21.5267 29.1733 21.1325 29.3342 20.6667 29.3333ZM10 20C7.9778 20 6.2498 19.2831 4.81602 17.8493C3.38224 16.4156 2.6658 14.688 2.66669 12.6667C2.66669 10.8222 3.2778 9.21111 4.50002 7.83333C5.72224 6.45555 7.23335 5.64444 9.03335 5.4C9.74447 4.13333 10.7169 3.13867 11.9507 2.416C13.1845 1.69333 14.5342 1.33244 16 1.33333C18 1.33333 19.7391 1.97244 21.2174 3.25067C22.6956 4.52889 23.5898 6.12311 23.9 8.03333C25.4334 8.16667 26.7222 8.8 27.7667 9.93333C28.8111 11.0667 29.3334 12.4222 29.3334 14C29.3334 15.6667 28.7502 17.0836 27.584 18.2507C26.4178 19.4178 25.0009 20.0009 23.3334 20H10Z" fill="#161616"/>
<path d="M4.81602 17.8493C6.2498 19.2831 7.9778 20 10 20H23.3334C25.0009 20.0009 26.4178 19.4178 27.584 18.2507C28.7502 17.0836 29.3334 15.6667 29.3334 14C29.3334 12.4222 28.8111 11.0667 27.7667 9.93333C26.7222 8.8 25.4334 8.16667 23.9 8.03333C23.5898 6.12311 22.6956 4.52889 21.2174 3.25067C19.7391 1.97244 18 1.33333 16 1.33333C14.5342 1.33244 13.1845 1.69333 11.9507 2.416C10.7169 3.13867 9.74447 4.13333 9.03335 5.4C7.23335 5.64444 5.72224 6.45556 4.50002 7.83333C3.2778 9.21111 2.66669 10.8222 2.66669 12.6667C2.6658 14.688 3.38224 16.4156 4.81602 17.8493Z" fill="#0043C6"/>
</svg>
