<svg width="32" height="32" viewBox="0 0 32 32" fill="none" xmlns="http://www.w3.org/2000/svg">
<path d="M22.6667 16C22.6667 17.7681 21.9643 19.4638 20.7141 20.714C19.4638 21.9643 17.7682 22.6667 16 22.6667C14.2319 22.6667 12.5362 21.9643 11.286 20.714C10.0358 19.4638 9.33337 17.7681 9.33337 16C9.33337 14.2319 10.0358 12.5362 11.286 11.286C12.5362 10.0357 14.2319 9.33333 16 9.33333C17.7682 9.33333 19.4638 10.0357 20.7141 11.286C21.9643 12.5362 22.6667 14.2319 22.6667 16Z" fill="#0043C6"/>
<path fill-rule="evenodd" clip-rule="evenodd" d="M16 1.66667C16.2652 1.66667 16.5196 1.77202 16.7071 1.95956C16.8947 2.1471 17 2.40145 17 2.66667V5.33333C17 5.59855 16.8947 5.8529 16.7071 6.04044C16.5196 6.22798 16.2652 6.33333 16 6.33333C15.7348 6.33333 15.4805 6.22798 15.2929 6.04044C15.1054 5.8529 15 5.59855 15 5.33333V2.66667C15 2.40145 15.1054 2.1471 15.2929 1.95956C15.4805 1.77202 15.7348 1.66667 16 1.66667ZM4.89202 4.95467C4.98068 4.85771 5.08758 4.77917 5.2066 4.72355C5.32563 4.66792 5.45445 4.63629 5.5857 4.63047C5.71696 4.62465 5.84807 4.64476 5.97155 4.68963C6.09503 4.7345 6.20846 4.80327 6.30535 4.892L9.26669 7.6C9.36564 7.68805 9.44612 7.79488 9.50344 7.91428C9.56077 8.03369 9.5938 8.16329 9.60062 8.29557C9.60744 8.42785 9.58792 8.56016 9.54318 8.68483C9.49844 8.8095 9.42938 8.92404 9.34001 9.0218C9.25064 9.11956 9.14274 9.19859 9.02258 9.25431C8.90241 9.31002 8.77237 9.34131 8.64002 9.34635C8.50766 9.35139 8.37562 9.33009 8.25156 9.28368C8.1275 9.23727 8.0139 9.16668 7.91735 9.076L4.95469 6.368C4.85773 6.27934 4.77919 6.17244 4.72357 6.05342C4.66794 5.93439 4.63631 5.80557 4.63049 5.67432C4.62467 5.54307 4.64478 5.41195 4.68965 5.28847C4.73452 5.16499 4.80329 5.05156 4.89202 4.95467ZM27.108 4.95467C27.1968 5.05156 27.2655 5.16499 27.3104 5.28847C27.3553 5.41195 27.3754 5.54307 27.3695 5.67432C27.3637 5.80557 27.3321 5.93439 27.2765 6.05342C27.2208 6.17244 27.1423 6.27934 27.0454 6.368L24.0827 9.076C23.8863 9.25075 23.629 9.34114 23.3664 9.3276C23.1039 9.31406 22.8573 9.19768 22.6799 9.00365C22.5025 8.80963 22.4087 8.55355 22.4187 8.29086C22.4287 8.02816 22.5417 7.77997 22.7334 7.6L25.696 4.892C25.7929 4.80327 25.9063 4.7345 26.0298 4.68963C26.1533 4.64476 26.2844 4.62465 26.4157 4.63047C26.5469 4.63629 26.6757 4.66792 26.7948 4.72355C26.9138 4.77917 27.0207 4.85771 27.1094 4.95467H27.108ZM1.66669 16C1.66669 15.7348 1.77204 15.4804 1.95958 15.2929C2.14712 15.1054 2.40147 15 2.66669 15H5.33335C5.59857 15 5.85292 15.1054 6.04046 15.2929C6.228 15.4804 6.33335 15.7348 6.33335 16C6.33335 16.2652 6.228 16.5196 6.04046 16.7071C5.85292 16.8946 5.59857 17 5.33335 17H2.66669C2.40147 17 2.14712 16.8946 1.95958 16.7071C1.77204 16.5196 1.66669 16.2652 1.66669 16ZM25.6667 16C25.6667 15.7348 25.772 15.4804 25.9596 15.2929C26.1471 15.1054 26.4015 15 26.6667 15H29.3334C29.5986 15 29.8529 15.1054 30.0405 15.2929C30.228 15.4804 30.3334 15.7348 30.3334 16C30.3334 16.2652 30.228 16.5196 30.0405 16.7071C29.8529 16.8946 29.5986 17 29.3334 17H26.6667C26.4015 17 26.1471 16.8946 25.9596 16.7071C25.772 16.5196 25.6667 16.2652 25.6667 16ZM22.7014 22.7C22.8889 22.5127 23.143 22.4075 23.408 22.4075C23.673 22.4075 23.9272 22.5127 24.1147 22.7L27.0774 25.664C27.254 25.8536 27.3502 26.1043 27.3456 26.3634C27.341 26.6224 27.2361 26.8696 27.0528 27.0528C26.8696 27.236 26.6225 27.341 26.3634 27.3456C26.1043 27.3501 25.8536 27.254 25.664 27.0773L22.7 24.1147C22.5128 23.9272 22.4076 23.673 22.4076 23.408C22.4076 23.143 22.5128 22.8888 22.7 22.7013L22.7014 22.7ZM9.30002 22.7C9.39295 22.7929 9.46666 22.9031 9.51696 23.0245C9.56725 23.1459 9.59314 23.276 9.59314 23.4073C9.59314 23.5387 9.56725 23.6688 9.51696 23.7902C9.46666 23.9115 9.39295 24.0218 9.30002 24.1147L6.33602 27.0773C6.14645 27.254 5.89573 27.3501 5.63666 27.3456C5.37759 27.341 5.13041 27.236 4.94719 27.0528C4.76397 26.8696 4.65902 26.6224 4.65445 26.3634C4.64988 26.1043 4.74605 25.8536 4.92269 25.664L7.88535 22.7C8.07285 22.5127 8.32702 22.4075 8.59202 22.4075C8.85702 22.4075 9.11252 22.5127 9.30002 22.7ZM16 25.6667C16.2652 25.6667 16.5196 25.772 16.7071 25.9596C16.8947 26.1471 17 26.4015 17 26.6667V29.3333C17 29.5986 16.8947 29.8529 16.7071 30.0404C16.5196 30.228 16.2652 30.3333 16 30.3333C15.7348 30.3333 15.4805 30.228 15.2929 30.0404C15.1054 29.8529 15 29.5986 15 29.3333V26.6667C15 26.4015 15.1054 26.1471 15.2929 25.9596C15.4805 25.772 15.7348 25.6667 16 25.6667Z" fill="black"/>
</svg>
