<svg width="25" height="24" viewBox="0 0 25 24" fill="none" xmlns="http://www.w3.org/2000/svg">
<rect x="0.5" width="24" height="24" rx="12" fill="#FFC50D"/>
<path d="M16.25 8H17.5V9.54656C17.4998 9.81622 17.4249 10.0797 17.2847 10.3029C17.1446 10.5261 16.9457 10.6989 16.7138 10.7989L16.25 11V8ZM8.75 11L8.28625 10.7989C8.0543 10.6989 7.85543 10.5261 7.71529 10.3029C7.57514 10.0797 7.50016 9.81622 7.5 9.54656V8H8.75V11Z" fill="#0019FF"/>
<path d="M12.5 22C9.84784 22 7.3043 20.9464 5.42893 19.0711C3.55357 17.1957 2.5 14.6522 2.5 12C2.5 9.34784 3.55357 6.8043 5.42893 4.92893C7.3043 3.05357 9.84784 2 12.5 2C15.1522 2 17.6957 3.05357 19.5711 4.92893C21.4464 6.8043 22.5 9.34784 22.5 12C22.5 14.6522 21.4464 17.1957 19.5711 19.0711C17.6957 20.9464 15.1522 22 12.5 22ZM6.25 8.25V9.6825C6.24972 10.1823 6.39927 10.6708 6.67935 11.0848C6.95943 11.4988 7.35718 11.8193 7.82125 12.005L8.9025 12.4375C9.09693 13.0934 9.46677 13.6837 9.97211 14.1447C10.4775 14.6058 11.0991 14.9201 11.77 15.0538C11.525 16.255 10.8225 17 9.3775 17H9.375C9.20924 17 9.05027 17.0658 8.93306 17.1831C8.81585 17.3003 8.75 17.4592 8.75 17.625C8.75 17.7908 8.81585 17.9497 8.93306 18.0669C9.05027 18.1842 9.20924 18.25 9.375 18.25H15.625C15.7908 18.25 15.9497 18.1842 16.0669 18.0669C16.1842 17.9497 16.25 17.7908 16.25 17.625C16.25 17.4592 16.1842 17.3003 16.0669 17.1831C15.9497 17.0658 15.7908 17 15.625 17C14.1775 17 13.475 16.2562 13.23 15.0538C13.901 14.92 14.5228 14.6055 15.0282 14.1442C15.5335 13.6829 15.9033 13.0923 16.0975 12.4362L17.1788 12.0037C17.6426 11.8181 18.0402 11.4978 18.3203 11.084C18.6004 10.6703 18.75 10.1821 18.75 9.6825V8.25C18.75 7.91848 18.6183 7.60054 18.3839 7.36612C18.1495 7.1317 17.8315 7 17.5 7H7.5C7.16848 7 6.85054 7.1317 6.61612 7.36612C6.3817 7.60054 6.25 7.91848 6.25 8.25Z" fill="#0019FF"/>
</svg>
