<svg width="24" height="24" viewBox="0 0 24 24" fill="none" xmlns="http://www.w3.org/2000/svg">
<rect width="24" height="24" rx="12" fill="#9A6E19"/>
<path d="M15.75 8H17V9.54656C16.9998 9.81622 16.9249 10.0797 16.7847 10.3029C16.6446 10.5261 16.4457 10.6989 16.2138 10.7989L15.75 11V8ZM8.25 11L7.78625 10.7989C7.5543 10.6989 7.35543 10.5261 7.21529 10.3029C7.07514 10.0797 7.00016 9.81622 7 9.54656V8H8.25V11Z" fill="#0019FF"/>
<path d="M12 22C9.34784 22 6.8043 20.9464 4.92893 19.0711C3.05357 17.1957 2 14.6522 2 12C2 9.34784 3.05357 6.8043 4.92893 4.92893C6.8043 3.05357 9.34784 2 12 2C14.6522 2 17.1957 3.05357 19.0711 4.92893C20.9464 6.8043 22 9.34784 22 12C22 14.6522 20.9464 17.1957 19.0711 19.0711C17.1957 20.9464 14.6522 22 12 22ZM5.75 8.25V9.6825C5.74972 10.1823 5.89927 10.6708 6.17935 11.0848C6.45943 11.4988 6.85718 11.8193 7.32125 12.005L8.4025 12.4375C8.59693 13.0934 8.96677 13.6837 9.47211 14.1447C9.97746 14.6058 10.5991 14.9201 11.27 15.0538C11.025 16.255 10.3225 17 8.8775 17H8.875C8.70924 17 8.55027 17.0658 8.43306 17.1831C8.31585 17.3003 8.25 17.4592 8.25 17.625C8.25 17.7908 8.31585 17.9497 8.43306 18.0669C8.55027 18.1842 8.70924 18.25 8.875 18.25H15.125C15.2908 18.25 15.4497 18.1842 15.5669 18.0669C15.6842 17.9497 15.75 17.7908 15.75 17.625C15.75 17.4592 15.6842 17.3003 15.5669 17.1831C15.4497 17.0658 15.2908 17 15.125 17C13.6775 17 12.975 16.2562 12.73 15.0538C13.401 14.92 14.0228 14.6055 14.5282 14.1442C15.0335 13.6829 15.4033 13.0923 15.5975 12.4362L16.6788 12.0037C17.1426 11.8181 17.5402 11.4978 17.8203 11.084C18.1004 10.6703 18.25 10.1821 18.25 9.6825V8.25C18.25 7.91848 18.1183 7.60054 17.8839 7.36612C17.6495 7.1317 17.3315 7 17 7H7C6.66848 7 6.35054 7.1317 6.11612 7.36612C5.8817 7.60054 5.75 7.91848 5.75 8.25Z" fill="#0019FF"/>
</svg>
