<svg width="6" height="6" viewBox="0 0 6 6" fill="none" xmlns="http://www.w3.org/2000/svg">
<path fill-rule="evenodd" clip-rule="evenodd" d="M2.3269 1.34226C2.32827 1.33478 2.33532 1.32954 2.34312 1.33023C2.35094 1.33089 2.35692 1.33721 2.35692 1.34482C2.35694 2.13695 2.35694 5.43729 2.35694 5.71371C2.35694 5.71817 2.35485 5.7224 2.35123 5.72519C2.34762 5.72796 2.34292 5.72901 2.33842 5.72801C1.42646 5.52572 0.671499 5.65133 0.0224845 5.99813C0.0158714 6.00173 0.00752265 6 0.00299668 5.9941C-0.00155126 5.9882 -0.000848306 5.97996 0.00460043 5.97485C1.17105 4.86954 1.95549 3.33691 2.3269 1.34226ZM2.35432 0.022343C2.35059 0.0164856 2.35158 0.00890278 2.35667 0.00411036C2.36179 -0.00066076 2.36964 -0.00136342 2.37555 0.00244922C4.66696 1.47551 5.84771 3.07015 5.99994 4.77736C6.00034 4.78179 5.99863 4.78614 5.99533 4.7892C5.99203 4.79227 5.98749 4.79372 5.98294 4.79316C4.64631 4.62907 3.46591 4.93615 2.43034 5.68012C2.42443 5.68441 2.41621 5.68392 2.41088 5.679C2.40554 5.67408 2.40464 5.66613 2.40874 5.66021C3.54731 4.00823 3.71482 2.16543 2.35432 0.022343Z" fill="white"/>
</svg>